# Blender v3.0.0 OBJ File: ''
# www.blender.org
mtllib Surf2.mtl
o Cube.002_Cube.004
v -0.584591 0.755231 0.016384
v -0.641070 -0.948242 0.020602
v -0.549193 -0.667703 0.018477
v -0.498969 -0.318181 0.018217
v -0.738221 -0.963467 0.029166
v -0.738221 0.938642 0.016670
v -0.738221 -0.172051 0.036421
v -0.738221 -0.712537 0.032510
v -0.712550 -0.966013 0.028416
v -0.697484 0.927088 0.016603
v -0.687342 -0.713115 0.031143
v -0.664619 -0.186873 0.034845
v -0.516160 -0.494897 0.017730
v -0.738221 -0.453321 0.035373
v -0.671642 -0.459631 0.033729
v -0.675347 -0.968273 0.025601
v -0.634777 0.855363 0.016451
v -0.625021 -0.704284 0.026759
v -0.583943 -0.234312 0.029490
v -0.596896 -0.475774 0.028291
v -0.738221 0.525607 0.028940
v -0.508621 0.379625 0.017563
v -0.676032 0.508979 0.028110
v -0.600138 0.453397 0.025220
v -0.738221 0.153583 0.034383
v -0.494556 0.012713 0.019923
v -0.665465 0.136655 0.033127
v -0.583788 0.085381 0.028923
v -0.604799 -0.929015 0.004771
v -0.558243 0.728419 -0.000689
v -0.738221 -0.974006 0.011641
v -0.738221 0.984820 -0.000826
v -0.529857 -0.696038 0.003062
v -0.468430 -0.314396 0.000522
v -0.688307 0.962775 -0.000879
v -0.714603 -0.975377 0.010463
v -0.483758 -0.490838 0.000690
v -0.623812 0.884137 -0.000823
v -0.670589 -0.975143 0.008044
v -0.487865 0.375925 -0.000049
v -0.464896 0.003021 0.001239
v -0.582992 0.760283 -0.018722
v -0.631242 -0.951334 -0.014553
v -0.544749 -0.661286 -0.013033
v -0.496805 -0.326907 -0.013508
v -0.738221 -0.964186 -0.005644
v -0.738221 0.939379 -0.016475
v -0.738221 -0.176052 -0.003390
v -0.738221 -0.713323 -0.005923
v -0.712957 -0.966647 -0.006841
v -0.698058 0.927964 -0.016596
v -0.687269 -0.713455 -0.007095
v -0.664853 -0.191121 -0.004491
v -0.512093 -0.495798 -0.013321
v -0.738221 -0.455418 -0.004262
v -0.671616 -0.461619 -0.005457
v -0.676056 -0.968838 -0.010128
v -0.635722 0.856534 -0.017374
v -0.623905 -0.702787 -0.010348
v -0.583768 -0.239683 -0.008037
v -0.595906 -0.477363 -0.009068
v -0.738221 0.522851 -0.008713
v -0.506833 0.378561 -0.016266
v -0.676414 0.506198 -0.009306
v -0.600317 0.450714 -0.011533
v -0.738221 0.149257 -0.004748
v -0.492678 0.008885 -0.012025
v -0.665759 0.132183 -0.005614
v -0.583741 0.080688 -0.008353
v -0.738221 -0.478336 -0.004262
v -0.738221 -0.693408 -0.005923
v -0.712213 -0.693408 -0.007095
v -0.712213 -0.478336 -0.005457
v -0.738221 -0.848411 -0.191151
v -0.738221 -0.854841 -0.161947
v -0.729997 -0.843105 -0.159115
v -0.730625 -0.836683 -0.188321
v -0.738221 -0.745194 -0.195993
v -0.727196 -0.787900 -0.109574
v -0.727196 -0.745645 -0.196203
v -0.738221 -0.787457 -0.109368
v -0.738221 -0.578340 -0.135063
v -0.719931 -0.578789 -0.135764
v -0.719931 -0.717688 -0.054848
v -0.738221 -0.717248 -0.054161
v -0.532676 -0.581300 0.018103
v -0.738221 -0.582929 0.033941
v -0.679492 -0.586373 0.032436
v -0.610958 -0.590029 0.027525
v -0.501056 -0.581606 0.001200
v -0.528421 -0.578542 -0.013177
v -0.679443 -0.587537 -0.006276
v -0.609906 -0.590075 -0.009708
v -0.712213 -0.585872 -0.006276
v -0.738221 -0.875894 -0.183068
v -0.728611 -0.862450 -0.179778
v -0.722356 -0.772325 -0.150934
v -0.713984 -0.645715 -0.094353
v -0.891850 0.755231 0.016384
v -0.835371 -0.948242 0.020602
v -0.927249 -0.667703 0.018477
v -0.977472 -0.318181 0.018217
v -0.763892 -0.966013 0.028416
v -0.778957 0.927088 0.016603
v -0.789099 -0.713115 0.031143
v -0.811822 -0.186872 0.034845
v -0.960281 -0.494897 0.017730
v -0.804799 -0.459631 0.033729
v -0.801094 -0.968273 0.025601
v -0.841664 0.855363 0.016451
v -0.851421 -0.704284 0.026759
v -0.892498 -0.234312 0.029490
v -0.879545 -0.475774 0.028291
v -0.967820 0.379625 0.017563
v -0.800409 0.508979 0.028110
v -0.876303 0.453397 0.025220
v -0.981885 0.012713 0.019923
v -0.810976 0.136655 0.033127
v -0.892653 0.085381 0.028923
v -0.871643 -0.929015 0.004771
v -0.918198 0.728419 -0.000689
v -0.946584 -0.696038 0.003062
v -1.008012 -0.314396 0.000522
v -0.788134 0.962775 -0.000879
v -0.761839 -0.975377 0.010463
v -0.992683 -0.490838 0.000690
v -0.852629 0.884137 -0.000823
v -0.805852 -0.975143 0.008044
v -0.988576 0.375925 -0.000049
v -1.011545 0.003021 0.001239
v -0.893449 0.760283 -0.018722
v -0.845200 -0.951334 -0.014553
v -0.931693 -0.661286 -0.013033
v -0.979637 -0.326907 -0.013508
v -0.763484 -0.966647 -0.006841
v -0.778383 0.927964 -0.016596
v -0.789172 -0.713455 -0.007095
v -0.811588 -0.191121 -0.004491
v -0.964348 -0.495798 -0.013321
v -0.804826 -0.461619 -0.005457
v -0.800386 -0.968838 -0.010128
v -0.840719 0.856534 -0.017374
v -0.852537 -0.702787 -0.010348
v -0.892673 -0.239683 -0.008037
v -0.880535 -0.477363 -0.009068
v -0.969608 0.378561 -0.016266
v -0.800027 0.506198 -0.009306
v -0.876124 0.450714 -0.011533
v -0.983763 0.008885 -0.012025
v -0.810683 0.132183 -0.005614
v -0.892700 0.080688 -0.008353
v -0.764228 -0.693408 -0.007095
v -0.764228 -0.478336 -0.005457
v -0.746444 -0.843105 -0.159115
v -0.745816 -0.836683 -0.188321
v -0.749246 -0.787900 -0.109574
v -0.749246 -0.745645 -0.196203
v -0.756510 -0.578789 -0.135764
v -0.756510 -0.717688 -0.054848
v -0.943765 -0.581300 0.018103
v -0.796949 -0.586373 0.032436
v -0.865483 -0.590029 0.027525
v -0.975385 -0.581606 0.001200
v -0.948020 -0.578542 -0.013177
v -0.796999 -0.587537 -0.006276
v -0.866536 -0.590075 -0.009708
v -0.764228 -0.585872 -0.006276
v -0.747831 -0.862450 -0.179778
v -0.754086 -0.772325 -0.150934
v -0.762457 -0.645715 -0.094353
vt 0.164568 0.945946
vt 0.096534 0.819169
vt 0.114569 0.822262
vt 0.172541 0.937103
vt 0.861044 0.011020
vt 0.874024 0.143379
vt 0.847824 0.143685
vt 0.847824 0.015809
vt 0.187681 0.959207
vt 0.189537 0.946591
vt 0.070376 0.299870
vt 0.118816 0.105143
vt 0.129414 0.114378
vt 0.087901 0.294144
vt 0.882095 0.273862
vt 0.885696 0.414204
vt 0.847824 0.421827
vt 0.847824 0.277114
vt 0.879807 0.772112
vt 0.868779 0.987219
vt 0.847824 0.993159
vt 0.847824 0.780650
vt 0.074231 0.740085
vt 0.064782 0.662548
vt 0.082556 0.645794
vt 0.092092 0.735410
vt 0.186787 0.034726
vt 0.195587 0.034315
vt 0.195292 0.046691
vt 0.183526 0.049211
vt 0.155440 0.053123
vt 0.156854 0.072555
vt 0.918890 0.743571
vt 0.901056 0.950338
vt 0.920663 0.265533
vt 0.927297 0.389800
vt 0.215258 0.963536
vt 0.202422 0.962583
vt 0.204476 0.945321
vt 0.215445 0.942156
vt 0.880248 0.006751
vt 0.906191 0.147895
vt 0.913435 0.206717
vt 0.878065 0.208625
vt 0.083525 0.780274
vt 0.101441 0.779706
vt 0.847824 0.210405
vt 0.954039 0.211147
vt 0.962565 0.255635
vt 0.902305 0.019419
vt 0.945498 0.166660
vt 0.971398 0.346623
vt 0.966197 0.705716
vt 0.926906 0.898851
vt 0.973520 0.516925
vt 0.927341 0.554274
vt 0.885254 0.580624
vt 0.847824 0.589323
vt 0.058073 0.485115
vt 0.076800 0.475351
vt 0.155971 0.949551
vt 0.086873 0.829965
vt 0.525085 0.013242
vt 0.539484 0.018413
vt 0.539484 0.161546
vt 0.509187 0.161043
vt 0.178130 0.972291
vt 0.056904 0.289697
vt 0.106864 0.102383
vt 0.505786 0.287950
vt 0.539484 0.289102
vt 0.539484 0.434919
vt 0.502570 0.427469
vt 0.508861 0.774525
vt 0.539484 0.782769
vt 0.539483 0.989133
vt 0.519588 0.983481
vt 0.058141 0.741539
vt 0.047313 0.652736
vt 0.170413 0.022071
vt 0.195947 0.010399
vt 0.135946 0.054426
vt 0.471127 0.747069
vt 0.488694 0.948113
vt 0.464423 0.283001
vt 0.461632 0.403757
vt 0.214815 0.985831
vt 0.199647 0.981105
vt 0.504007 0.008645
vt 0.473995 0.165596
vt 0.465810 0.225001
vt 0.498928 0.225087
vt 0.069635 0.787079
vt 0.527136 0.278159
vt 0.539484 0.278732
vt 0.424437 0.233384
vt 0.420235 0.276680
vt 0.473235 0.022149
vt 0.430644 0.188494
vt 0.417102 0.361371
vt 0.424715 0.711397
vt 0.462526 0.900459
vt 0.417380 0.528256
vt 0.462713 0.563583
vt 0.503497 0.589033
vt 0.539484 0.597490
vt 0.041794 0.476566
vt 0.538874 0.207192
vt 0.539360 0.206577
vt 0.539436 0.207160
vt 0.539475 0.207222
vt 0.522170 0.173620
vt 0.511715 0.224946
vt 0.539484 0.172003
vt 0.539484 0.207221
vt 0.539484 0.207247
vt 0.539447 0.207278
vt 0.539484 0.207970
vt 0.539365 0.207957
vt 0.539484 0.206555
vt 0.539484 0.207189
vt 0.536071 0.197007
vt 0.539484 0.196501
vt 0.539484 0.219416
vt 0.537848 0.219237
vt 0.530662 0.211428
vt 0.266821 0.947449
vt 0.258789 0.938981
vt 0.302459 0.820895
vt 0.320145 0.816118
vt 0.834603 0.011020
vt 0.821624 0.143379
vt 0.243392 0.960116
vt 0.241951 0.947223
vt 0.328601 0.297717
vt 0.311059 0.292542
vt 0.264778 0.115402
vt 0.275062 0.105903
vt 0.813552 0.273862
vt 0.809952 0.414204
vt 0.815840 0.772112
vt 0.826868 0.987219
vt 0.338182 0.736168
vt 0.320171 0.732201
vt 0.326734 0.642247
vt 0.345022 0.658423
vt 0.204455 0.035137
vt 0.207263 0.050681
vt 0.236883 0.054449
vt 0.236034 0.074337
vt 0.776758 0.743571
vt 0.794591 0.950338
vt 0.774985 0.265533
vt 0.768351 0.389800
vt 0.226396 0.945659
vt 0.228164 0.963046
vt 0.815400 0.006751
vt 0.789457 0.147895
vt 0.782213 0.206717
vt 0.817583 0.208625
vt 0.330643 0.776601
vt 0.312716 0.777025
vt 0.741609 0.211147
vt 0.733083 0.255635
vt 0.793343 0.019419
vt 0.750150 0.166660
vt 0.724249 0.346623
vt 0.729450 0.705716
vt 0.768741 0.898851
vt 0.722127 0.516925
vt 0.768307 0.554274
vt 0.810394 0.580624
vt 0.346221 0.481047
vt 0.327294 0.471870
vt 0.330619 0.825986
vt 0.275443 0.950608
vt 0.553882 0.013242
vt 0.569781 0.161043
vt 0.252773 0.973756
vt 0.286898 0.102837
vt 0.341669 0.287242
vt 0.573182 0.287950
vt 0.576397 0.427469
vt 0.570106 0.774525
vt 0.559378 0.983481
vt 0.362148 0.648066
vt 0.354241 0.736989
vt 0.221462 0.022468
vt 0.256672 0.055477
vt 0.607840 0.747069
vt 0.590273 0.948113
vt 0.614545 0.283001
vt 0.617335 0.403758
vt 0.230292 0.981860
vt 0.574961 0.008645
vt 0.604973 0.165596
vt 0.613158 0.225001
vt 0.580040 0.225087
vt 0.344767 0.782589
vt 0.551831 0.278159
vt 0.654531 0.233384
vt 0.658733 0.276680
vt 0.605733 0.022149
vt 0.648323 0.188494
vt 0.661866 0.361372
vt 0.654252 0.711397
vt 0.616441 0.900459
vt 0.661587 0.528256
vt 0.616254 0.563584
vt 0.575470 0.589033
vt 0.362148 0.472062
vt 0.540093 0.207192
vt 0.539492 0.207222
vt 0.539532 0.207160
vt 0.539608 0.206577
vt 0.567253 0.224946
vt 0.556798 0.173620
vt 0.539521 0.207278
vt 0.539603 0.207957
vt 0.542896 0.197007
vt 0.541120 0.219237
vt 0.548305 0.211428
vn 0.8875 -0.4544 0.0770
vn 0.9584 -0.2760 0.0724
vn 0.3173 -0.0724 0.9456
vn 0.4238 -0.4501 0.7860
vn 0.0159 -0.5305 0.8476
vn 0.0497 -0.0146 0.9987
vn 0.0000 -0.0124 0.9999
vn 0.0000 -0.4822 0.8761
vn 0.2996 -0.9487 0.1009
vn 0.2047 -0.5839 0.7856
vn 0.9930 0.1178 -0.0073
vn 0.9711 0.2381 0.0182
vn 0.4058 0.1578 0.9002
vn 0.3867 0.0561 0.9205
vn 0.0459 -0.0092 0.9989
vn 0.0424 0.0001 0.9991
vn 0.0000 0.0014 1.0000
vn -0.0000 -0.0076 1.0000
vn 0.0339 0.0221 0.9992
vn 0.1851 0.2256 0.9565
vn -0.0000 0.2370 0.9715
vn -0.0000 0.0229 0.9997
vn 0.9911 -0.1318 -0.0158
vn 0.9984 -0.0444 -0.0348
vn 0.3217 -0.0204 0.9466
vn 0.3109 -0.0443 0.9494
vn 0.5459 0.8377 -0.0142
vn -0.0000 0.9999 -0.0122
vn 0.8259 0.5638 0.0036
vn 0.3421 0.1871 0.9209
vn 0.0711 0.0196 0.9973
vn 0.0963 -0.0139 0.9953
vn 0.0907 -0.0044 0.9959
vn 0.0000 -0.9997 0.0247
vn -0.0535 -0.9985 0.0127
vn 0.1026 -0.0231 0.9945
vn 0.0961 -0.0177 0.9952
vn 0.0479 -0.0132 0.9988
vn 0.9790 -0.2037 -0.0013
vn 0.3079 -0.0585 0.9496
vn -0.0000 -0.0114 0.9999
vn 0.3484 0.0090 0.9373
vn 0.0823 0.0075 0.9966
vn 0.0383 0.0100 0.9992
vn -0.0000 0.0107 0.9999
vn 0.9993 0.0152 -0.0356
vn 0.3827 -0.5603 -0.7345
vn 0.2622 -0.0697 -0.9625
vn -0.0697 -0.5385 -0.8397
vn -0.0000 -0.4941 -0.8694
vn -0.0000 -0.0093 -1.0000
vn -0.0403 0.0041 -0.9992
vn 0.1059 -0.6405 -0.7607
vn 0.3143 0.0392 -0.9485
vn 0.3662 0.1585 -0.9169
vn -0.0287 0.0079 -0.9996
vn 0.0000 0.0135 -0.9999
vn -0.0000 -0.0006 -1.0000
vn -0.0282 0.0003 -0.9996
vn -0.0259 -0.0149 -0.9996
vn 0.0000 -0.0150 -0.9999
vn -0.0000 0.2006 -0.9797
vn 0.1551 0.1938 -0.9687
vn 0.2177 -0.0338 -0.9754
vn 0.2103 -0.0118 -0.9776
vn 0.3050 0.1746 -0.9362
vn -0.0503 -0.0152 -0.9986
vn -0.0478 0.0078 -0.9988
vn -0.0464 0.0030 -0.9989
vn -0.0578 0.0130 -0.9982
vn -0.0461 0.0099 -0.9989
vn -0.0242 0.0088 -0.9997
vn 0.2273 -0.0516 -0.9725
vn 0.1365 0.2260 -0.9645
vn -0.0000 0.4484 -0.8938
vn 0.2349 0.0046 -0.9720
vn -0.0466 -0.0066 -0.9989
vn -0.0266 -0.0073 -0.9996
vn 0.0000 -0.0076 -1.0000
vn 0.9971 -0.0625 -0.0423
vn 0.7062 -0.4669 0.5322
vn 0.7642 -0.4327 0.4783
vn 0.8943 -0.4313 -0.1187
vn 0.4127 -0.2974 -0.8610
vn 0.6879 0.0056 -0.7258
vn 0.0000 -0.8450 -0.5347
vn 0.0000 -0.9698 -0.2438
vn 0.0000 -0.2241 -0.9746
vn 0.7236 -0.0861 -0.6848
vn 0.0000 0.1472 -0.9891
vn 0.6523 0.0872 -0.7530
vn -0.0000 -0.6297 0.7769
vn 0.0000 -0.6899 0.7239
vn 0.7336 -0.5513 0.3973
vn -0.0000 -0.7782 0.6280
vn -0.0000 0.5975 -0.8019
vn 0.6167 0.4460 -0.6487
vn 0.9977 -0.0212 -0.0650
vn -0.8875 -0.4544 0.0770
vn -0.4238 -0.4501 0.7860
vn -0.3173 -0.0724 0.9456
vn -0.9584 -0.2760 0.0724
vn -0.0159 -0.5305 0.8476
vn -0.0497 -0.0146 0.9987
vn -0.2996 -0.9487 0.1009
vn -0.2047 -0.5839 0.7856
vn -0.9930 0.1178 -0.0073
vn -0.3867 0.0561 0.9205
vn -0.4058 0.1578 0.9002
vn -0.9711 0.2381 0.0182
vn -0.0459 -0.0092 0.9989
vn -0.0424 0.0001 0.9991
vn -0.0339 0.0221 0.9992
vn -0.1851 0.2256 0.9565
vn -0.9911 -0.1318 -0.0158
vn -0.3109 -0.0443 0.9494
vn -0.3217 -0.0204 0.9466
vn -0.9984 -0.0444 -0.0348
vn -0.5459 0.8377 -0.0142
vn -0.8259 0.5638 0.0036
vn -0.3421 0.1871 0.9209
vn -0.0711 0.0196 0.9973
vn -0.0963 -0.0139 0.9953
vn -0.0907 -0.0044 0.9959
vn 0.0535 -0.9985 0.0127
vn -0.1026 -0.0231 0.9945
vn -0.0961 -0.0177 0.9952
vn -0.0479 -0.0132 0.9988
vn -0.9790 -0.2037 -0.0013
vn -0.3079 -0.0585 0.9496
vn -0.3484 0.0090 0.9373
vn -0.0823 0.0075 0.9966
vn -0.0383 0.0100 0.9992
vn -0.9993 0.0152 -0.0356
vn -0.2622 -0.0697 -0.9625
vn -0.3827 -0.5603 -0.7345
vn 0.0697 -0.5385 -0.8397
vn 0.0403 0.0041 -0.9992
vn -0.1059 -0.6405 -0.7607
vn -0.3662 0.1585 -0.9169
vn -0.3143 0.0392 -0.9485
vn 0.0287 0.0079 -0.9996
vn 0.0282 0.0003 -0.9996
vn 0.0259 -0.0149 -0.9996
vn -0.1551 0.1938 -0.9687
vn -0.2103 -0.0118 -0.9776
vn -0.2177 -0.0338 -0.9754
vn -0.3050 0.1746 -0.9362
vn 0.0503 -0.0152 -0.9986
vn 0.0478 0.0078 -0.9988
vn 0.0464 0.0030 -0.9989
vn 0.0578 0.0130 -0.9982
vn 0.0461 0.0099 -0.9989
vn 0.0242 0.0088 -0.9997
vn -0.2273 -0.0516 -0.9725
vn -0.1365 0.2260 -0.9645
vn -0.2349 0.0046 -0.9720
vn 0.0466 -0.0066 -0.9989
vn 0.0266 -0.0073 -0.9996
vn -0.9971 -0.0625 -0.0423
vn -0.8943 -0.4313 -0.1187
vn -0.7642 -0.4327 0.4783
vn -0.7062 -0.4669 0.5322
vn -0.6879 0.0056 -0.7258
vn -0.4127 -0.2974 -0.8610
vn -0.7236 -0.0861 -0.6848
vn -0.6523 0.0872 -0.7530
vn -0.7336 -0.5513 0.3973
vn -0.6167 0.4460 -0.6487
vn -0.9977 -0.0212 -0.0650
g Cube.002_Cube.004_prancha2
usemtl prancha2
s 1
f 29/1/1 33/2/2 3/3/3 2/4/4
f 9/5/5 11/6/6 8/7/7 5/8/8
f 39/9/9 29/1/1 2/4/4 16/10/10
f 40/11/11 30/12/12 1/13/13 22/14/14
f 15/15/15 12/16/16 7/17/17 14/18/18
f 23/19/19 10/20/20 6/21/21 21/22/22
f 37/23/23 34/24/24 4/25/25 13/26/26
f 35/27/27 32/28/28 6/29/21 10/30/20
f 38/31/29 35/27/27 10/30/20 17/32/30
f 24/33/31 17/34/30 10/20/20 23/19/19
f 20/35/32 19/36/33 12/16/16 15/15/15
f 31/37/34 36/38/35 9/39/5 5/40/8
f 16/41/10 18/42/36 11/6/6 9/5/5
f 89/43/37 20/35/32 15/15/15 88/44/38
f 90/45/39 37/23/23 13/26/26 86/46/40
f 88/44/38 15/15/15 14/18/18 87/47/41
f 86/48/40 13/49/26 20/35/32 89/43/37
f 2/50/4 3/51/3 18/42/36 16/41/10
f 13/49/26 4/52/25 19/36/33 20/35/32
f 22/53/14 1/54/13 17/34/30 24/33/31
f 30/12/12 38/31/29 17/32/30 1/13/13
f 36/38/35 39/9/9 16/10/10 9/39/5
f 26/55/42 22/53/14 24/33/31 28/56/43
f 28/56/43 24/33/31 23/19/19 27/57/44
f 27/57/44 23/19/19 21/22/22 25/58/45
f 41/59/46 40/11/11 22/14/14 26/60/42
f 34/24/24 41/59/46 26/60/42 4/25/25
f 12/16/16 27/57/44 25/58/45 7/17/17
f 19/36/33 28/56/43 27/57/44 12/16/16
f 4/52/25 26/55/42 28/56/43 19/36/33
f 29/1/1 43/61/47 44/62/48 33/2/2
f 50/63/49 46/64/50 49/65/51 52/66/52
f 39/9/9 57/67/53 43/61/47 29/1/1
f 40/11/11 63/68/54 42/69/55 30/12/12
f 56/70/56 55/71/57 48/72/58 53/73/59
f 64/74/60 62/75/61 47/76/62 51/77/63
f 37/23/23 54/78/64 45/79/65 34/24/24
f 35/27/27 51/80/63 47/81/62 32/28/28
f 38/31/29 58/82/66 51/80/63 35/27/27
f 65/83/67 64/74/60 51/77/63 58/84/66
f 61/85/68 56/70/56 53/73/59 60/86/69
f 31/37/34 46/87/50 50/88/49 36/38/35
f 57/89/53 50/63/49 52/66/52 59/90/70
f 93/91/71 92/92/72 56/70/56 61/85/68
f 90/45/39 91/93/73 54/78/64 37/23/23
f 55/71/57 56/70/56 73/94/74 70/95/75
f 91/96/73 93/91/71 61/85/68 54/97/64
f 43/98/47 57/89/53 59/90/70 44/99/48
f 54/97/64 61/85/68 60/86/69 45/100/65
f 63/101/54 65/83/67 58/84/66 42/102/55
f 30/12/12 42/69/55 58/82/66 38/31/29
f 36/38/35 50/88/49 57/67/53 39/9/9
f 67/103/76 69/104/77 65/83/67 63/101/54
f 69/104/77 68/105/78 64/74/60 65/83/67
f 68/105/78 66/106/79 62/75/61 64/74/60
f 41/59/46 67/107/76 63/68/54 40/11/11
f 34/24/24 45/79/65 67/107/76 41/59/46
f 53/73/59 48/72/58 66/106/79 68/105/78
f 60/86/69 53/73/59 68/105/78 69/104/77
f 45/100/65 60/86/69 69/104/77 67/103/76
f 97/108/80 79/109/81 76/110/82 96/111/83
f 92/92/72 52/66/52 72/112/84 94/113/85
f 52/66/52 49/65/51 71/114/86 72/112/84
f 96/111/83 95/115/87 74/116/88 77/117/89
f 78/118/90 80/119/91 77/117/89 74/116/88
f 79/109/81 81/120/92 75/121/93 76/110/82
f 84/122/94 85/123/95 81/120/92 79/109/81
f 82/124/96 83/125/97 80/119/91 78/118/90
f 98/126/98 84/122/94 79/109/81 97/108/80
f 94/113/85 72/112/84 84/122/94 98/126/98
f 70/95/75 73/94/74 83/125/97 82/124/96
f 72/112/84 71/114/86 85/123/95 84/122/94
f 73/94/74 94/113/85 98/126/98 83/125/97
f 83/125/97 98/126/98 97/108/80 80/119/91
f 76/110/82 75/121/93 95/115/87 96/111/83
f 56/70/56 92/92/72 94/113/85 73/94/74
f 80/119/91 97/108/80 96/111/83 77/117/89
f 44/99/48 59/90/70 93/91/71 91/96/73
f 33/2/2 44/62/48 91/93/73 90/45/39
f 59/90/70 52/66/52 92/92/72 93/91/71
f 3/51/3 86/48/40 89/43/37 18/42/36
f 11/6/6 88/44/38 87/47/41 8/7/7
f 33/2/2 90/45/39 86/46/40 3/3/3
f 18/42/36 89/43/37 88/44/38 11/6/6
f 120/127/99 100/128/100 101/129/101 122/130/102
f 103/131/103 5/8/8 8/7/7 105/132/104
f 128/133/105 109/134/106 100/128/100 120/127/99
f 129/135/107 114/136/108 99/137/109 121/138/110
f 108/139/111 14/18/18 7/17/17 106/140/112
f 115/141/113 21/22/22 6/21/21 104/142/114
f 126/143/115 107/144/116 102/145/117 123/146/118
f 124/147/119 104/148/114 6/29/21 32/28/28
f 127/149/120 110/150/121 104/148/114 124/147/119
f 116/151/122 115/141/113 104/142/114 110/152/121
f 113/153/123 108/139/111 106/140/112 112/154/124
f 31/37/34 5/40/8 103/155/103 125/156/125
f 109/157/106 103/131/103 105/132/104 111/158/126
f 162/159/127 161/160/128 108/139/111 113/153/123
f 163/161/129 160/162/130 107/144/116 126/143/115
f 161/160/128 87/47/41 14/18/18 108/139/111
f 160/163/130 162/159/127 113/153/123 107/164/116
f 100/165/100 109/157/106 111/158/126 101/166/101
f 107/164/116 113/153/123 112/154/124 102/167/117
f 114/168/108 116/151/122 110/152/121 99/169/109
f 121/138/110 99/137/109 110/150/121 127/149/120
f 125/156/125 103/155/103 109/134/106 128/133/105
f 117/170/131 119/171/132 116/151/122 114/168/108
f 119/171/132 118/172/133 115/141/113 116/151/122
f 118/172/133 25/58/45 21/22/22 115/141/113
f 130/173/134 117/174/131 114/136/108 129/135/107
f 123/146/118 102/145/117 117/174/131 130/173/134
f 106/140/112 7/17/17 25/58/45 118/172/133
f 112/154/124 106/140/112 118/172/133 119/171/132
f 102/167/117 112/154/124 119/171/132 117/170/131
f 120/127/99 122/130/102 133/175/135 132/176/136
f 135/177/137 137/178/138 49/65/51 46/64/50
f 128/133/105 120/127/99 132/176/136 141/179/139
f 129/135/107 121/138/110 131/180/140 146/181/141
f 140/182/142 138/183/143 48/72/58 55/71/57
f 147/184/144 136/185/145 47/76/62 62/75/61
f 126/143/115 123/146/118 134/186/146 139/187/147
f 124/147/119 32/28/28 47/81/62 136/188/145
f 127/149/120 124/147/119 136/188/145 142/189/148
f 148/190/149 142/191/148 136/185/145 147/184/144
f 145/192/150 144/193/151 138/183/143 140/182/142
f 31/37/34 125/156/125 135/194/137 46/87/50
f 141/195/139 143/196/152 137/178/138 135/177/137
f 166/197/153 145/192/150 140/182/142 165/198/154
f 163/161/129 126/143/115 139/187/147 164/199/155
f 55/71/57 70/95/75 153/200/156 140/182/142
f 164/201/155 139/202/147 145/192/150 166/197/153
f 132/203/136 133/204/135 143/196/152 141/195/139
f 139/202/147 134/205/146 144/193/151 145/192/150
f 146/206/141 131/207/140 142/191/148 148/190/149
f 121/138/110 127/149/120 142/189/148 131/180/140
f 125/156/125 128/133/105 141/179/139 135/194/137
f 149/208/157 146/206/141 148/190/149 151/209/158
f 151/209/158 148/190/149 147/184/144 150/210/159
f 150/210/159 147/184/144 62/75/61 66/106/79
f 130/173/134 129/135/107 146/181/141 149/211/157
f 123/146/118 130/173/134 149/211/157 134/186/146
f 138/183/143 150/210/159 66/106/79 48/72/58
f 144/193/151 151/209/158 150/210/159 138/183/143
f 134/205/146 149/208/157 151/209/158 144/193/151
f 169/212/160 168/213/161 154/214/162 156/215/163
f 165/198/154 167/216/164 152/217/165 137/178/138
f 137/178/138 152/217/165 71/114/86 49/65/51
f 168/213/161 155/218/166 74/116/88 95/115/87
f 78/118/90 74/116/88 155/218/166 157/219/167
f 156/215/163 154/214/162 75/121/93 81/120/92
f 159/220/168 156/215/163 81/120/92 85/123/95
f 82/124/96 78/118/90 157/219/167 158/221/169
f 170/222/170 169/212/160 156/215/163 159/220/168
f 167/216/164 170/222/170 159/220/168 152/217/165
f 70/95/75 82/124/96 158/221/169 153/200/156
f 152/217/165 159/220/168 85/123/95 71/114/86
f 153/200/156 158/221/169 170/222/170 167/216/164
f 158/221/169 157/219/167 169/212/160 170/222/170
f 154/214/162 168/213/161 95/115/87 75/121/93
f 140/182/142 153/200/156 167/216/164 165/198/154
f 157/219/167 155/218/166 168/213/161 169/212/160
f 133/204/135 164/201/155 166/197/153 143/196/152
f 122/130/102 163/161/129 164/199/155 133/175/135
f 143/196/152 166/197/153 165/198/154 137/178/138
f 101/166/101 111/158/126 162/159/127 160/163/130
f 105/132/104 8/7/7 87/47/41 161/160/128
f 122/130/102 101/129/101 160/162/130 163/161/129
f 111/158/126 105/132/104 161/160/128 162/159/127
