# Blender v3.0.0 OBJ File: ''
# www.blender.org
mtllib Surf1.mtl
o Cube_Cube.001
v -1.247195 0.719986 0.020400
v -1.297470 -0.927084 0.024794
v -1.210320 -0.654510 0.022580
v -1.158002 -0.321456 0.022309
v -1.407233 -0.933901 0.033715
v -1.407233 1.032950 0.020698
v -1.407233 -0.182211 0.041272
v -1.407233 -0.697232 0.037198
v -1.380491 -0.942757 0.032933
v -1.364797 0.992024 0.020628
v -1.354233 -0.697783 0.035774
v -1.330562 -0.196334 0.039631
v -1.175910 -0.489846 0.021802
v -1.407233 -0.450229 0.040181
v -1.337877 -0.456241 0.038468
v -1.341737 -0.950620 0.030002
v -1.299474 0.864151 0.020470
v -1.289311 -0.689368 0.031207
v -1.246520 -0.241538 0.034053
v -1.260013 -0.471624 0.032803
v -1.407233 0.482578 0.033480
v -1.168056 0.343474 0.021628
v -1.342450 0.466734 0.032615
v -1.263390 0.413771 0.029605
v -1.407233 0.128081 0.039149
v -1.153405 -0.006151 0.024087
v -1.331443 0.111951 0.037841
v -1.246359 0.063093 0.033462
v -1.268246 -0.903511 0.008303
v -1.219748 0.683282 0.002615
v -1.407233 -0.970566 0.015459
v -1.407233 1.076509 0.002472
v -1.190179 -0.681510 0.006523
v -1.126189 -0.317849 0.003876
v -1.355237 1.032955 0.002417
v -1.382630 -0.975334 0.014232
v -1.142157 -0.485979 0.004051
v -1.288053 0.898226 0.002475
v -1.336781 -0.974522 0.011712
v -1.146435 0.339948 0.003282
v -1.122508 -0.015387 0.004623
v -1.245530 0.725971 -0.016171
v -1.286366 -0.930030 -0.011828
v -1.205691 -0.648396 -0.010245
v -1.155747 -0.329771 -0.010739
v -1.407233 -0.936402 -0.002547
v -1.407233 1.034513 -0.013830
v -1.407233 -0.186023 -0.000199
v -1.407233 -0.697981 -0.002838
v -1.380916 -0.944964 -0.003794
v -1.365395 0.993832 -0.013956
v -1.354156 -0.698107 -0.004059
v -1.330805 -0.200382 -0.001346
v -1.171674 -0.490705 -0.010544
v -1.407233 -0.452227 -0.001108
v -1.337850 -0.458136 -0.002352
v -1.342475 -0.952585 -0.007218
v -1.300459 0.866006 -0.014767
v -1.288149 -0.687942 -0.007448
v -1.246338 -0.246656 -0.005040
v -1.258983 -0.473138 -0.006114
v -1.407233 0.479953 -0.005744
v -1.166194 0.342460 -0.013612
v -1.342849 0.464083 -0.006362
v -1.263577 0.411214 -0.008682
v -1.407233 0.123960 -0.001614
v -1.151448 -0.009799 -0.009194
v -1.331748 0.107690 -0.002516
v -1.246310 0.058621 -0.005369
v -1.407233 -0.474066 -0.001108
v -1.407233 -0.679005 -0.002838
v -1.380141 -0.679005 -0.004059
v -1.380141 -0.474066 -0.002352
v -1.407233 -0.826705 -0.195791
v -1.407233 -0.832832 -0.165369
v -1.398666 -0.821648 -0.162420
v -1.399320 -0.815529 -0.192844
v -1.407233 -0.728350 -0.200835
v -1.395748 -0.769044 -0.110812
v -1.395748 -0.728781 -0.201055
v -1.407233 -0.768622 -0.110597
v -1.407233 -0.569358 -0.137365
v -1.388180 -0.569785 -0.138095
v -1.388180 -0.702140 -0.053804
v -1.407233 -0.701721 -0.053087
v -1.193115 -0.572178 0.022191
v -1.407233 -0.573730 0.038689
v -1.346055 -0.577012 0.037121
v -1.274662 -0.580496 0.032005
v -1.160176 -0.572470 0.004583
v -1.188682 -0.569550 -0.010394
v -1.346003 -0.578121 -0.003205
v -1.273566 -0.580540 -0.006781
v -1.380141 -0.576535 -0.003205
v -1.407233 -0.852893 -0.187372
v -1.397222 -0.840083 -0.183945
v -1.390706 -0.754203 -0.153897
v -1.381985 -0.633558 -0.094956
v -1.567270 0.719986 0.020400
v -1.516996 -0.927084 0.024794
v -1.604145 -0.654510 0.022580
v -1.656464 -0.321456 0.022309
v -1.433975 -0.942757 0.032933
v -1.449668 0.992024 0.020628
v -1.460233 -0.697783 0.035774
v -1.483904 -0.196334 0.039631
v -1.638556 -0.489846 0.021802
v -1.476589 -0.456241 0.038468
v -1.472729 -0.950620 0.030002
v -1.514991 0.864151 0.020470
v -1.525155 -0.689368 0.031207
v -1.567946 -0.241538 0.034053
v -1.554452 -0.471624 0.032803
v -1.646409 0.343474 0.021628
v -1.472016 0.466734 0.032615
v -1.551075 0.413771 0.029605
v -1.661061 -0.006151 0.024087
v -1.483023 0.111951 0.037841
v -1.568107 0.063093 0.033462
v -1.546220 -0.903511 0.008303
v -1.594717 0.683282 0.002615
v -1.624287 -0.681510 0.006523
v -1.688277 -0.317849 0.003876
v -1.459229 1.032955 0.002417
v -1.431836 -0.975334 0.014232
v -1.672309 -0.485978 0.004051
v -1.526413 0.898226 0.002475
v -1.477685 -0.974522 0.011712
v -1.668031 0.339948 0.003282
v -1.691958 -0.015387 0.004623
v -1.568936 0.725971 -0.016171
v -1.528100 -0.930030 -0.011828
v -1.608775 -0.648396 -0.010245
v -1.658719 -0.329771 -0.010739
v -1.433550 -0.944964 -0.003794
v -1.449071 0.993832 -0.013956
v -1.460310 -0.698107 -0.004059
v -1.483661 -0.200382 -0.001346
v -1.642792 -0.490705 -0.010544
v -1.476616 -0.458136 -0.002352
v -1.471991 -0.952585 -0.007218
v -1.514006 0.866006 -0.014767
v -1.526317 -0.687942 -0.007448
v -1.568128 -0.246656 -0.005040
v -1.555483 -0.473138 -0.006114
v -1.648272 0.342460 -0.013612
v -1.471617 0.464083 -0.006362
v -1.550888 0.411214 -0.008682
v -1.663017 -0.009799 -0.009194
v -1.482717 0.107690 -0.002516
v -1.568156 0.058621 -0.005369
v -1.434325 -0.679005 -0.004059
v -1.434325 -0.474066 -0.002352
v -1.415800 -0.821648 -0.162420
v -1.415145 -0.815529 -0.192844
v -1.418718 -0.769044 -0.110812
v -1.418718 -0.728781 -0.201055
v -1.426286 -0.569785 -0.138095
v -1.426286 -0.702140 -0.053804
v -1.621351 -0.572178 0.022191
v -1.468411 -0.577012 0.037121
v -1.539804 -0.580496 0.032005
v -1.654289 -0.572470 0.004583
v -1.625783 -0.569550 -0.010394
v -1.468463 -0.578121 -0.003205
v -1.540900 -0.580540 -0.006781
v -1.434325 -0.576535 -0.003205
v -1.417244 -0.840083 -0.183945
v -1.423760 -0.754203 -0.153897
v -1.432481 -0.633558 -0.094956
vt 0.164568 0.945946
vt 0.096534 0.819169
vt 0.114569 0.822262
vt 0.172541 0.937103
vt 0.861044 0.011020
vt 0.874024 0.143379
vt 0.847824 0.143685
vt 0.847824 0.015809
vt 0.187681 0.959207
vt 0.189537 0.946591
vt 0.070376 0.299870
vt 0.118816 0.105143
vt 0.129414 0.114378
vt 0.087901 0.294144
vt 0.882095 0.273862
vt 0.885696 0.414204
vt 0.847824 0.421827
vt 0.847824 0.277114
vt 0.879807 0.772112
vt 0.868779 0.987219
vt 0.847824 0.993159
vt 0.847824 0.780650
vt 0.074231 0.740085
vt 0.064782 0.662548
vt 0.082556 0.645794
vt 0.092092 0.735410
vt 0.186787 0.034726
vt 0.195587 0.034315
vt 0.195292 0.046691
vt 0.183526 0.049211
vt 0.155440 0.053123
vt 0.156854 0.072555
vt 0.918890 0.743571
vt 0.901056 0.950338
vt 0.920663 0.265533
vt 0.927297 0.389800
vt 0.215258 0.963536
vt 0.202422 0.962583
vt 0.204476 0.945321
vt 0.215445 0.942156
vt 0.880248 0.006751
vt 0.906191 0.147895
vt 0.913435 0.206717
vt 0.878065 0.208625
vt 0.083525 0.780274
vt 0.101441 0.779706
vt 0.847824 0.210405
vt 0.954039 0.211147
vt 0.962565 0.255635
vt 0.902305 0.019419
vt 0.945498 0.166660
vt 0.971398 0.346623
vt 0.966197 0.705716
vt 0.926906 0.898851
vt 0.973520 0.516925
vt 0.927341 0.554274
vt 0.885254 0.580624
vt 0.847824 0.589323
vt 0.058073 0.485115
vt 0.076800 0.475351
vt 0.155971 0.949551
vt 0.086873 0.829965
vt 0.525085 0.013242
vt 0.539484 0.018413
vt 0.539484 0.161546
vt 0.509187 0.161043
vt 0.178130 0.972291
vt 0.056904 0.289697
vt 0.106864 0.102383
vt 0.505786 0.287950
vt 0.539484 0.289102
vt 0.539484 0.434919
vt 0.502570 0.427469
vt 0.508861 0.774525
vt 0.539484 0.782769
vt 0.539483 0.989133
vt 0.519588 0.983481
vt 0.058141 0.741539
vt 0.047313 0.652736
vt 0.170413 0.022071
vt 0.195947 0.010399
vt 0.135946 0.054426
vt 0.471127 0.747069
vt 0.488694 0.948113
vt 0.464423 0.283001
vt 0.461632 0.403757
vt 0.214815 0.985831
vt 0.199647 0.981105
vt 0.504007 0.008645
vt 0.473995 0.165596
vt 0.465810 0.225001
vt 0.498928 0.225087
vt 0.069635 0.787079
vt 0.527136 0.278159
vt 0.539484 0.278732
vt 0.424437 0.233384
vt 0.420235 0.276680
vt 0.473235 0.022149
vt 0.430644 0.188494
vt 0.417102 0.361371
vt 0.424715 0.711397
vt 0.462526 0.900459
vt 0.417380 0.528256
vt 0.462713 0.563583
vt 0.503497 0.589033
vt 0.539484 0.597490
vt 0.041794 0.476566
vt 0.538874 0.207192
vt 0.539360 0.206577
vt 0.539436 0.207160
vt 0.539475 0.207222
vt 0.522170 0.173620
vt 0.511715 0.224946
vt 0.539484 0.172003
vt 0.539484 0.207221
vt 0.539484 0.207247
vt 0.539447 0.207278
vt 0.539484 0.207970
vt 0.539365 0.207957
vt 0.539484 0.206555
vt 0.539484 0.207189
vt 0.536071 0.197007
vt 0.539484 0.196501
vt 0.539484 0.219416
vt 0.537848 0.219237
vt 0.530662 0.211428
vt 0.266821 0.947449
vt 0.258789 0.938981
vt 0.302459 0.820895
vt 0.320145 0.816118
vt 0.834603 0.011020
vt 0.821624 0.143379
vt 0.243392 0.960116
vt 0.241951 0.947223
vt 0.328601 0.297717
vt 0.311059 0.292542
vt 0.264778 0.115402
vt 0.275062 0.105903
vt 0.813552 0.273862
vt 0.809952 0.414204
vt 0.815840 0.772112
vt 0.826868 0.987219
vt 0.338182 0.736168
vt 0.320171 0.732201
vt 0.326734 0.642247
vt 0.345022 0.658423
vt 0.204455 0.035137
vt 0.207263 0.050681
vt 0.236883 0.054449
vt 0.236034 0.074337
vt 0.776758 0.743571
vt 0.794591 0.950338
vt 0.774985 0.265533
vt 0.768351 0.389800
vt 0.226396 0.945659
vt 0.228164 0.963046
vt 0.815400 0.006751
vt 0.789457 0.147895
vt 0.782213 0.206717
vt 0.817583 0.208625
vt 0.330643 0.776601
vt 0.312716 0.777025
vt 0.741609 0.211147
vt 0.733083 0.255635
vt 0.793343 0.019419
vt 0.750150 0.166660
vt 0.724249 0.346623
vt 0.729450 0.705716
vt 0.768741 0.898851
vt 0.722127 0.516925
vt 0.768307 0.554274
vt 0.810394 0.580624
vt 0.346221 0.481047
vt 0.327294 0.471870
vt 0.330619 0.825986
vt 0.275443 0.950608
vt 0.553882 0.013242
vt 0.569781 0.161043
vt 0.252773 0.973756
vt 0.286898 0.102837
vt 0.341669 0.287242
vt 0.573182 0.287950
vt 0.576397 0.427469
vt 0.570106 0.774525
vt 0.559378 0.983481
vt 0.362148 0.648066
vt 0.354241 0.736989
vt 0.221462 0.022468
vt 0.256672 0.055477
vt 0.607840 0.747069
vt 0.590273 0.948113
vt 0.614545 0.283001
vt 0.617335 0.403758
vt 0.230292 0.981860
vt 0.574961 0.008645
vt 0.604973 0.165596
vt 0.613158 0.225001
vt 0.580040 0.225087
vt 0.344767 0.782589
vt 0.551831 0.278159
vt 0.654531 0.233384
vt 0.658733 0.276680
vt 0.605733 0.022149
vt 0.648323 0.188494
vt 0.661866 0.361372
vt 0.654252 0.711397
vt 0.616441 0.900459
vt 0.661587 0.528256
vt 0.616254 0.563584
vt 0.575470 0.589033
vt 0.362148 0.472062
vt 0.540093 0.207192
vt 0.539492 0.207222
vt 0.539532 0.207160
vt 0.539608 0.206577
vt 0.567253 0.224946
vt 0.556798 0.173620
vt 0.539521 0.207278
vt 0.539603 0.207957
vt 0.542896 0.197007
vt 0.541120 0.219237
vt 0.548305 0.211428
vn 0.9019 -0.4209 0.0976
vn 0.9534 -0.2860 0.0963
vn 0.3265 -0.0807 0.9417
vn 0.4165 -0.3571 0.8361
vn 0.0010 -0.2771 0.9608
vn 0.0492 -0.0158 0.9987
vn 0.0000 -0.0135 0.9999
vn 0.0000 -0.2023 0.9793
vn 0.3368 -0.9361 0.1016
vn 0.2154 -0.3894 0.8955
vn 0.9920 0.1263 -0.0057
vn 0.9743 0.2241 0.0218
vn 0.4135 0.1285 0.9014
vn 0.3941 0.0608 0.9170
vn 0.0460 -0.0101 0.9989
vn 0.0424 0.0001 0.9991
vn 0.0000 0.0015 1.0000
vn 0.0000 -0.0083 1.0000
vn 0.0367 0.0204 0.9991
vn 0.2662 0.1732 0.9482
vn 0.0000 0.2751 0.9614
vn -0.0000 0.0202 0.9998
vn 0.9895 -0.1438 -0.0159
vn 0.9982 -0.0490 -0.0347
vn 0.3220 -0.0222 0.9465
vn 0.3113 -0.0484 0.9491
vn 0.7523 0.6587 -0.0143
vn 0.0000 1.0000 -0.0095
vn 0.9109 0.4127 -0.0014
vn 0.3715 0.1408 0.9177
vn 0.0741 0.0199 0.9971
vn 0.0963 -0.0152 0.9952
vn 0.0907 -0.0048 0.9959
vn 0.0000 -0.9991 0.0431
vn -0.1659 -0.9859 0.0220
vn 0.0985 -0.0230 0.9949
vn 0.0961 -0.0193 0.9952
vn 0.0479 -0.0144 0.9987
vn 0.9752 -0.2215 -0.0015
vn 0.3078 -0.0639 0.9493
vn 0.0000 -0.0125 0.9999
vn 0.3483 0.0098 0.9373
vn 0.0823 0.0082 0.9966
vn 0.0384 0.0108 0.9992
vn 0.0000 0.0116 0.9999
vn 0.9992 0.0170 -0.0354
vn 0.3950 -0.4633 -0.7933
vn 0.2760 -0.0791 -0.9579
vn -0.0997 -0.2811 -0.9545
vn 0.0000 -0.2033 -0.9791
vn -0.0000 -0.0101 -0.9999
vn -0.0399 0.0045 -0.9992
vn 0.1216 -0.4646 -0.8771
vn 0.3218 0.0428 -0.9458
vn 0.3674 0.1223 -0.9220
vn -0.0286 0.0086 -0.9996
vn -0.0000 0.0148 -0.9999
vn 0.0000 -0.0006 -1.0000
vn -0.0283 0.0004 -0.9996
vn -0.0277 -0.0139 -0.9995
vn -0.0000 -0.0133 -0.9999
vn 0.0000 0.2485 -0.9686
vn 0.2319 0.1478 -0.9614
vn 0.2182 -0.0371 -0.9752
vn 0.2107 -0.0127 -0.9775
vn 0.3338 0.1287 -0.9338
vn -0.0523 -0.0155 -0.9985
vn -0.0477 0.0086 -0.9988
vn -0.0464 0.0032 -0.9989
vn -0.0558 0.0131 -0.9984
vn -0.0461 0.0108 -0.9989
vn -0.0243 0.0096 -0.9997
vn 0.2273 -0.0565 -0.9722
vn 0.1445 0.2357 -0.9610
vn -0.0000 0.4679 -0.8838
vn 0.2351 0.0049 -0.9720
vn -0.0465 -0.0071 -0.9989
vn -0.0266 -0.0080 -0.9996
vn 0.0000 -0.0083 -1.0000
vn 0.9968 -0.0680 -0.0415
vn 0.7014 -0.4943 0.5135
vn 0.7585 -0.4589 0.4627
vn 0.8837 -0.4520 -0.1215
vn 0.4023 -0.3018 -0.8644
vn 0.6879 0.0055 -0.7258
vn -0.0000 -0.8364 -0.5482
vn -0.0000 -0.9664 -0.2569
vn -0.0000 -0.2398 -0.9708
vn 0.7236 -0.0958 -0.6836
vn -0.0000 0.1589 -0.9873
vn 0.6493 0.0951 -0.7546
vn -0.0000 -0.6632 0.7484
vn -0.0000 -0.7207 0.6933
vn 0.7304 -0.5703 0.3759
vn 0.0000 -0.8021 0.5972
vn 0.0000 0.6260 -0.7798
vn 0.6158 0.4681 -0.6337
vn 0.9977 -0.0235 -0.0634
vn -0.9019 -0.4209 0.0976
vn -0.4165 -0.3571 0.8361
vn -0.3265 -0.0807 0.9417
vn -0.9534 -0.2860 0.0963
vn -0.0010 -0.2771 0.9608
vn -0.0492 -0.0158 0.9987
vn -0.3368 -0.9361 0.1016
vn -0.2154 -0.3894 0.8955
vn -0.9920 0.1263 -0.0057
vn -0.3941 0.0608 0.9170
vn -0.4135 0.1285 0.9014
vn -0.9743 0.2241 0.0218
vn -0.0460 -0.0101 0.9989
vn -0.0424 0.0001 0.9991
vn -0.0367 0.0204 0.9991
vn -0.2662 0.1732 0.9482
vn -0.9895 -0.1438 -0.0159
vn -0.3113 -0.0484 0.9491
vn -0.3220 -0.0222 0.9465
vn -0.9982 -0.0490 -0.0347
vn -0.7523 0.6587 -0.0143
vn -0.9109 0.4127 -0.0014
vn -0.3715 0.1408 0.9177
vn -0.0741 0.0199 0.9971
vn -0.0963 -0.0152 0.9952
vn -0.0907 -0.0048 0.9959
vn 0.1659 -0.9859 0.0220
vn -0.0985 -0.0230 0.9949
vn -0.0961 -0.0193 0.9952
vn -0.0479 -0.0144 0.9987
vn -0.9752 -0.2215 -0.0015
vn -0.3078 -0.0639 0.9493
vn -0.3483 0.0098 0.9373
vn -0.0823 0.0082 0.9966
vn -0.0384 0.0108 0.9992
vn -0.9992 0.0170 -0.0354
vn -0.2760 -0.0791 -0.9579
vn -0.3950 -0.4633 -0.7933
vn 0.0997 -0.2811 -0.9545
vn 0.0399 0.0045 -0.9992
vn -0.1216 -0.4646 -0.8771
vn -0.3674 0.1223 -0.9220
vn -0.3218 0.0428 -0.9458
vn 0.0286 0.0086 -0.9996
vn 0.0283 0.0004 -0.9996
vn 0.0277 -0.0139 -0.9995
vn -0.2319 0.1478 -0.9614
vn -0.2107 -0.0127 -0.9775
vn -0.2182 -0.0371 -0.9752
vn -0.3338 0.1287 -0.9338
vn 0.0523 -0.0155 -0.9985
vn 0.0477 0.0086 -0.9988
vn 0.0464 0.0032 -0.9989
vn 0.0558 0.0131 -0.9984
vn 0.0461 0.0108 -0.9989
vn 0.0243 0.0096 -0.9997
vn -0.2273 -0.0565 -0.9722
vn -0.1445 0.2357 -0.9610
vn -0.2351 0.0049 -0.9720
vn 0.0465 -0.0071 -0.9989
vn 0.0266 -0.0080 -0.9996
vn -0.9968 -0.0680 -0.0415
vn -0.8837 -0.4519 -0.1215
vn -0.7585 -0.4589 0.4627
vn -0.7014 -0.4943 0.5135
vn -0.6879 0.0055 -0.7258
vn -0.4023 -0.3018 -0.8644
vn -0.7236 -0.0958 -0.6836
vn -0.6493 0.0951 -0.7546
vn -0.7304 -0.5703 0.3759
vn -0.6158 0.4681 -0.6337
vn -0.9977 -0.0235 -0.0634
g Cube_Cube.001_prancha1
usemtl prancha1
s 1
f 29/1/1 33/2/2 3/3/3 2/4/4
f 9/5/5 11/6/6 8/7/7 5/8/8
f 39/9/9 29/1/1 2/4/4 16/10/10
f 40/11/11 30/12/12 1/13/13 22/14/14
f 15/15/15 12/16/16 7/17/17 14/18/18
f 23/19/19 10/20/20 6/21/21 21/22/22
f 37/23/23 34/24/24 4/25/25 13/26/26
f 35/27/27 32/28/28 6/29/21 10/30/20
f 38/31/29 35/27/27 10/30/20 17/32/30
f 24/33/31 17/34/30 10/20/20 23/19/19
f 20/35/32 19/36/33 12/16/16 15/15/15
f 31/37/34 36/38/35 9/39/5 5/40/8
f 16/41/10 18/42/36 11/6/6 9/5/5
f 89/43/37 20/35/32 15/15/15 88/44/38
f 90/45/39 37/23/23 13/26/26 86/46/40
f 88/44/38 15/15/15 14/18/18 87/47/41
f 86/48/40 13/49/26 20/35/32 89/43/37
f 2/50/4 3/51/3 18/42/36 16/41/10
f 13/49/26 4/52/25 19/36/33 20/35/32
f 22/53/14 1/54/13 17/34/30 24/33/31
f 30/12/12 38/31/29 17/32/30 1/13/13
f 36/38/35 39/9/9 16/10/10 9/39/5
f 26/55/42 22/53/14 24/33/31 28/56/43
f 28/56/43 24/33/31 23/19/19 27/57/44
f 27/57/44 23/19/19 21/22/22 25/58/45
f 41/59/46 40/11/11 22/14/14 26/60/42
f 34/24/24 41/59/46 26/60/42 4/25/25
f 12/16/16 27/57/44 25/58/45 7/17/17
f 19/36/33 28/56/43 27/57/44 12/16/16
f 4/52/25 26/55/42 28/56/43 19/36/33
f 29/1/1 43/61/47 44/62/48 33/2/2
f 50/63/49 46/64/50 49/65/51 52/66/52
f 39/9/9 57/67/53 43/61/47 29/1/1
f 40/11/11 63/68/54 42/69/55 30/12/12
f 56/70/56 55/71/57 48/72/58 53/73/59
f 64/74/60 62/75/61 47/76/62 51/77/63
f 37/23/23 54/78/64 45/79/65 34/24/24
f 35/27/27 51/80/63 47/81/62 32/28/28
f 38/31/29 58/82/66 51/80/63 35/27/27
f 65/83/67 64/74/60 51/77/63 58/84/66
f 61/85/68 56/70/56 53/73/59 60/86/69
f 31/37/34 46/87/50 50/88/49 36/38/35
f 57/89/53 50/63/49 52/66/52 59/90/70
f 93/91/71 92/92/72 56/70/56 61/85/68
f 90/45/39 91/93/73 54/78/64 37/23/23
f 55/71/57 56/70/56 73/94/74 70/95/75
f 91/96/73 93/91/71 61/85/68 54/97/64
f 43/98/47 57/89/53 59/90/70 44/99/48
f 54/97/64 61/85/68 60/86/69 45/100/65
f 63/101/54 65/83/67 58/84/66 42/102/55
f 30/12/12 42/69/55 58/82/66 38/31/29
f 36/38/35 50/88/49 57/67/53 39/9/9
f 67/103/76 69/104/77 65/83/67 63/101/54
f 69/104/77 68/105/78 64/74/60 65/83/67
f 68/105/78 66/106/79 62/75/61 64/74/60
f 41/59/46 67/107/76 63/68/54 40/11/11
f 34/24/24 45/79/65 67/107/76 41/59/46
f 53/73/59 48/72/58 66/106/79 68/105/78
f 60/86/69 53/73/59 68/105/78 69/104/77
f 45/100/65 60/86/69 69/104/77 67/103/76
f 97/108/80 79/109/81 76/110/82 96/111/83
f 92/92/72 52/66/52 72/112/84 94/113/85
f 52/66/52 49/65/51 71/114/86 72/112/84
f 96/111/83 95/115/87 74/116/88 77/117/89
f 78/118/90 80/119/91 77/117/89 74/116/88
f 79/109/81 81/120/92 75/121/93 76/110/82
f 84/122/94 85/123/95 81/120/92 79/109/81
f 82/124/96 83/125/97 80/119/91 78/118/90
f 98/126/98 84/122/94 79/109/81 97/108/80
f 94/113/85 72/112/84 84/122/94 98/126/98
f 70/95/75 73/94/74 83/125/97 82/124/96
f 72/112/84 71/114/86 85/123/95 84/122/94
f 73/94/74 94/113/85 98/126/98 83/125/97
f 83/125/97 98/126/98 97/108/80 80/119/91
f 76/110/82 75/121/93 95/115/87 96/111/83
f 56/70/56 92/92/72 94/113/85 73/94/74
f 80/119/91 97/108/80 96/111/83 77/117/89
f 44/99/48 59/90/70 93/91/71 91/96/73
f 33/2/2 44/62/48 91/93/73 90/45/39
f 59/90/70 52/66/52 92/92/72 93/91/71
f 3/51/3 86/48/40 89/43/37 18/42/36
f 11/6/6 88/44/38 87/47/41 8/7/7
f 33/2/2 90/45/39 86/46/40 3/3/3
f 18/42/36 89/43/37 88/44/38 11/6/6
f 120/127/99 100/128/100 101/129/101 122/130/102
f 103/131/103 5/8/8 8/7/7 105/132/104
f 128/133/105 109/134/106 100/128/100 120/127/99
f 129/135/107 114/136/108 99/137/109 121/138/110
f 108/139/111 14/18/18 7/17/17 106/140/112
f 115/141/113 21/22/22 6/21/21 104/142/114
f 126/143/115 107/144/116 102/145/117 123/146/118
f 124/147/119 104/148/114 6/29/21 32/28/28
f 127/149/120 110/150/121 104/148/114 124/147/119
f 116/151/122 115/141/113 104/142/114 110/152/121
f 113/153/123 108/139/111 106/140/112 112/154/124
f 31/37/34 5/40/8 103/155/103 125/156/125
f 109/157/106 103/131/103 105/132/104 111/158/126
f 162/159/127 161/160/128 108/139/111 113/153/123
f 163/161/129 160/162/130 107/144/116 126/143/115
f 161/160/128 87/47/41 14/18/18 108/139/111
f 160/163/130 162/159/127 113/153/123 107/164/116
f 100/165/100 109/157/106 111/158/126 101/166/101
f 107/164/116 113/153/123 112/154/124 102/167/117
f 114/168/108 116/151/122 110/152/121 99/169/109
f 121/138/110 99/137/109 110/150/121 127/149/120
f 125/156/125 103/155/103 109/134/106 128/133/105
f 117/170/131 119/171/132 116/151/122 114/168/108
f 119/171/132 118/172/133 115/141/113 116/151/122
f 118/172/133 25/58/45 21/22/22 115/141/113
f 130/173/134 117/174/131 114/136/108 129/135/107
f 123/146/118 102/145/117 117/174/131 130/173/134
f 106/140/112 7/17/17 25/58/45 118/172/133
f 112/154/124 106/140/112 118/172/133 119/171/132
f 102/167/117 112/154/124 119/171/132 117/170/131
f 120/127/99 122/130/102 133/175/135 132/176/136
f 135/177/137 137/178/138 49/65/51 46/64/50
f 128/133/105 120/127/99 132/176/136 141/179/139
f 129/135/107 121/138/110 131/180/140 146/181/141
f 140/182/142 138/183/143 48/72/58 55/71/57
f 147/184/144 136/185/145 47/76/62 62/75/61
f 126/143/115 123/146/118 134/186/146 139/187/147
f 124/147/119 32/28/28 47/81/62 136/188/145
f 127/149/120 124/147/119 136/188/145 142/189/148
f 148/190/149 142/191/148 136/185/145 147/184/144
f 145/192/150 144/193/151 138/183/143 140/182/142
f 31/37/34 125/156/125 135/194/137 46/87/50
f 141/195/139 143/196/152 137/178/138 135/177/137
f 166/197/153 145/192/150 140/182/142 165/198/154
f 163/161/129 126/143/115 139/187/147 164/199/155
f 55/71/57 70/95/75 153/200/156 140/182/142
f 164/201/155 139/202/147 145/192/150 166/197/153
f 132/203/136 133/204/135 143/196/152 141/195/139
f 139/202/147 134/205/146 144/193/151 145/192/150
f 146/206/141 131/207/140 142/191/148 148/190/149
f 121/138/110 127/149/120 142/189/148 131/180/140
f 125/156/125 128/133/105 141/179/139 135/194/137
f 149/208/157 146/206/141 148/190/149 151/209/158
f 151/209/158 148/190/149 147/184/144 150/210/159
f 150/210/159 147/184/144 62/75/61 66/106/79
f 130/173/134 129/135/107 146/181/141 149/211/157
f 123/146/118 130/173/134 149/211/157 134/186/146
f 138/183/143 150/210/159 66/106/79 48/72/58
f 144/193/151 151/209/158 150/210/159 138/183/143
f 134/205/146 149/208/157 151/209/158 144/193/151
f 169/212/160 168/213/161 154/214/162 156/215/163
f 165/198/154 167/216/164 152/217/165 137/178/138
f 137/178/138 152/217/165 71/114/86 49/65/51
f 168/213/161 155/218/166 74/116/88 95/115/87
f 78/118/90 74/116/88 155/218/166 157/219/167
f 156/215/163 154/214/162 75/121/93 81/120/92
f 159/220/168 156/215/163 81/120/92 85/123/95
f 82/124/96 78/118/90 157/219/167 158/221/169
f 170/222/170 169/212/160 156/215/163 159/220/168
f 167/216/164 170/222/170 159/220/168 152/217/165
f 70/95/75 82/124/96 158/221/169 153/200/156
f 152/217/165 159/220/168 85/123/95 71/114/86
f 153/200/156 158/221/169 170/222/170 167/216/164
f 158/221/169 157/219/167 169/212/160 170/222/170
f 154/214/162 168/213/161 95/115/87 75/121/93
f 140/182/142 153/200/156 167/216/164 165/198/154
f 157/219/167 155/218/166 168/213/161 169/212/160
f 133/204/135 164/201/155 166/197/153 143/196/152
f 122/130/102 163/161/129 164/199/155 133/175/135
f 143/196/152 166/197/153 165/198/154 137/178/138
f 101/166/101 111/158/126 162/159/127 160/163/130
f 105/132/104 8/7/7 87/47/41 161/160/128
f 122/130/102 101/129/101 160/162/130 163/161/129
f 111/158/126 105/132/104 161/160/128 162/159/127
