# Blender v3.0.0 OBJ File: ''
# www.blender.org
mtllib Umbrella.mtl
o Umbrella_Sphere.008
v 0.256841 1.249219 0.010650
v 0.474580 1.116459 -0.241809
v 0.363228 1.193628 0.261403
v 0.671158 1.013739 0.221522
v 0.256841 1.138036 0.512156
v 0.474580 0.911019 0.684852
v -0.000000 1.256797 0.275407
v 0.000000 1.115010 0.616021
v -0.000000 0.868471 0.876770
v -0.256841 1.138036 0.512156
v -0.474580 0.911019 0.684852
v -0.363228 1.193628 0.261403
v -0.671158 1.013739 0.221522
v -0.256841 1.249219 0.010650
v -0.474580 1.116459 -0.241809
v -0.000000 1.272246 -0.093215
v -0.000000 1.159007 -0.433727
v -0.000000 1.040023 -0.596623
v 0.568825 0.989026 -0.366593
v 0.804440 0.865908 0.188748
v 0.568825 0.742790 0.744089
v 0.000000 0.691792 0.974118
v -0.568825 0.742790 0.744089
v -0.804440 0.865908 0.188748
v -0.568825 0.989026 -0.366593
v 0.388202 1.187707 -0.137538
v 0.549001 1.103683 0.241462
v 0.388202 1.019660 0.620462
v -0.000000 1.222511 -0.294525
v 0.000000 0.984856 0.777449
v -0.549001 1.103683 0.241462
v -0.388202 1.187707 -0.137538
v -0.388202 1.019660 0.620462
v 0.253866 1.239532 0.011550
v 0.468581 1.108813 -0.237359
v 0.359020 1.184585 0.259398
v 0.662673 1.007392 0.220115
v 0.253866 1.129637 0.507246
v 0.468581 0.905971 0.677588
v -0.000000 1.247034 0.273243
v 0.000000 1.106877 0.609908
v -0.000000 0.863961 0.867079
v -0.253866 1.129637 0.507246
v -0.468581 0.905971 0.677588
v -0.359020 1.184585 0.259398
v -0.662673 1.007392 0.220115
v -0.253866 1.239532 0.011550
v -0.468581 1.108813 -0.237359
v -0.000000 1.262292 -0.091112
v -0.000000 1.150823 -0.426850
v -0.000000 1.032398 -0.588558
v 0.562090 0.982004 -0.361252
v 0.794915 0.860344 0.187514
v 0.562090 0.738683 0.736280
v 0.000000 0.688290 0.963586
v -0.562090 0.738683 0.736280
v -0.794915 0.860344 0.187514
v -0.562090 0.982004 -0.361252
v 0.383600 1.178778 -0.134804
v 0.542493 1.095750 0.239704
v 0.383600 1.012723 0.614211
v -0.000000 1.213169 -0.289930
v 0.000000 0.978331 0.769337
v -0.542493 1.095750 0.239704
v -0.383600 1.178778 -0.134804
v -0.383600 1.012723 0.614211
v 0.000000 0.008455 -0.016712
v 0.000000 1.277639 0.264664
v 0.010607 0.007504 -0.012423
v 0.010607 1.276688 0.268953
v 0.015000 0.005209 -0.002068
v 0.015000 1.274392 0.279308
v 0.010607 0.002913 0.008287
v 0.010607 1.272097 0.289663
v -0.000000 0.001962 0.012576
v -0.000000 1.271146 0.293953
v -0.010607 0.002913 0.008287
v -0.010607 1.272097 0.289663
v -0.015000 0.005209 -0.002068
v -0.015000 1.274392 0.279308
v -0.010607 0.007504 -0.012423
v -0.010607 1.276688 0.268953
vt 0.444994 0.568520
vt 0.442841 0.526765
vt 0.493407 0.505810
vt 0.521421 0.536847
vt 0.448002 0.599820
vt 0.541434 0.561099
vt 0.564287 0.593998
vt 0.455120 0.639240
vt 0.442249 0.453851
vt 0.315656 0.677148
vt 0.310131 0.637473
vt 0.405046 0.602545
vt 0.426556 0.636337
vt 0.307915 0.564270
vt 0.310258 0.491391
vt 0.359283 0.545367
vt 0.308385 0.606078
vt 0.386025 0.577507
vt 0.505772 0.177604
vt 0.432911 0.174760
vt 0.487223 0.126108
vt 0.547582 0.177422
vt 0.519545 0.099588
vt 0.618700 0.170639
vt 0.578989 0.175892
vt 0.544714 0.080739
vt 0.578653 0.059461
vt 0.609086 0.291580
vt 0.567340 0.293890
vt 0.546194 0.243405
vt 0.577125 0.215274
vt 0.679767 0.281187
vt 0.640375 0.288453
vt 0.601301 0.195168
vt 0.634113 0.172191
vt 0.494429 0.294758
vt 0.625704 0.416768
vt 0.591608 0.395742
vt 0.625179 0.300339
vt 0.664929 0.305298
vt 0.533783 0.350799
vt 0.479114 0.302549
vt 0.551952 0.299167
vt 0.566301 0.377080
vt 0.593762 0.299041
vt 0.055422 0.556381
vt 0.080370 0.525041
vt 0.171081 0.569767
vt 0.161409 0.608640
vt 0.131899 0.472998
vt 0.186334 0.424484
vt 0.180991 0.497204
vt 0.101922 0.502144
vt 0.176122 0.538730
vt 0.217496 0.580208
vt 0.246796 0.550381
vt 0.296431 0.573454
vt 0.292517 0.615080
vt 0.196476 0.603593
vt 0.288189 0.646225
vt 0.279413 0.685310
vt 0.172254 0.635497
vt 0.300103 0.500630
vt 0.513110 0.513115
vt 0.482904 0.484207
vt 0.505328 0.434275
vt 0.547002 0.437647
vt 0.568984 0.557633
vt 0.536767 0.533829
vt 0.578200 0.441568
vt 0.617396 0.449834
vt 0.432462 0.431553
vt 0.518451 0.260961
vt 0.488165 0.181601
vt 0.531060 0.180606
vt 0.551103 0.233126
vt 0.493109 0.280703
vt 0.458491 0.303319
vt 0.415230 0.189960
vt 0.456114 0.183762
vt 0.605932 0.182117
vt 0.308658 0.140076
vt 0.332988 0.108197
vt 0.424125 0.150856
vt 0.432495 0.078592
vt 0.383119 0.055481
vt 0.436345 0.006068
vt 0.428489 0.120009
vt 0.353880 0.085087
vt 0.237449 0.055729
vt 0.188629 0.077365
vt 0.186324 0.006266
vt 0.265483 0.085313
vt 0.191715 0.118004
vt 0.203286 0.186773
vt 0.195365 0.148300
vt 0.285475 0.108366
vt 0.130935 0.188923
vt 0.112597 0.270641
vt 0.076802 0.248094
vt 0.088939 0.194013
vt 0.177091 0.303501
vt 0.140115 0.286324
vt 0.162516 0.186503
vt 0.016093 0.206068
vt 0.202007 0.418400
vt 0.161937 0.418377
vt 0.140631 0.320119
vt 0.078140 0.357240
vt 0.089683 0.410474
vt 0.018179 0.398111
vt 0.113476 0.335336
vt 0.130919 0.415774
vt 0.306996 0.466177
vt 0.283482 0.497681
vt 0.193699 0.456824
vt 0.186255 0.527747
vt 0.234897 0.549883
vt 0.183244 0.598878
vt 0.189746 0.487107
vt 0.263246 0.520554
vt 0.352050 0.521900
vt 0.427433 0.487377
vt 0.431118 0.529095
vt 0.381230 0.551943
vt 0.331217 0.498466
vt 0.414675 0.416863
vt 0.423300 0.456295
vt 0.434385 0.602120
vt 0.487803 0.425520
vt 0.518477 0.346030
vt 0.551125 0.374072
vt 0.530825 0.426678
vt 0.493131 0.326133
vt 0.455661 0.423233
vt 0.605932 0.425441
vt 0.413411 0.191835
vt 0.308780 0.142665
vt 0.205474 0.188300
vt 0.179553 0.303426
vt 0.203955 0.416620
vt 0.306810 0.463580
vt 0.412647 0.415194
vt 0.455856 0.303463
vt 0.996653 0.673318
vt 0.996653 0.997690
vt 0.915560 0.997690
vt 0.915560 0.673318
vt 0.834467 0.997690
vt 0.834467 0.673318
vt 0.753374 0.997690
vt 0.753374 0.673318
vt 0.672281 0.997690
vt 0.672281 0.673318
vt 0.591188 0.997690
vt 0.591188 0.673318
vt 0.510095 0.997690
vt 0.510095 0.673318
vt 0.239174 0.929011
vt 0.166289 0.959201
vt 0.093405 0.929011
vt 0.063216 0.856127
vt 0.093405 0.783242
vt 0.166289 0.753053
vt 0.239174 0.783242
vt 0.269363 0.856127
vt 0.429002 0.997690
vt 0.429002 0.673318
vt 0.347908 0.997690
vt 0.347908 0.673318
vn 0.1810 0.9548 -0.2359
vn 0.2969 0.7711 -0.5632
vn 0.0725 0.9965 0.0418
vn 0.7168 0.6802 -0.1533
vn 0.1749 0.9743 0.1418
vn 0.4369 0.8994 0.0140
vn 0.1749 0.9430 0.2833
vn 0.4369 0.8210 0.3674
vn 0.7168 0.5517 0.4264
vn 0.1810 0.7656 0.6173
vn 0.2969 0.4608 0.8364
vn 0.0725 0.9208 0.3833
vn -0.2969 0.4608 0.8364
vn -0.0725 0.9208 0.3833
vn -0.1810 0.7656 0.6173
vn -0.7168 0.5517 0.4264
vn -0.1749 0.9430 0.2833
vn -0.4369 0.8210 0.3674
vn -0.4369 0.8994 0.0140
vn -0.7168 0.6802 -0.1533
vn -0.1749 0.9743 0.1418
vn -0.1810 0.9548 -0.2359
vn -0.2969 0.7711 -0.5632
vn -0.0725 0.9965 0.0418
vn -0.2420 0.8828 -0.4027
vn -0.5842 0.8087 -0.0686
vn -0.5842 0.7039 0.4039
vn -0.2420 0.6298 0.7381
vn 0.2420 0.6298 0.7381
vn 0.5842 0.7039 0.4039
vn 0.5842 0.8087 -0.0686
vn 0.2420 0.8828 -0.4027
vn -0.1810 -0.9548 0.2359
vn -0.2972 -0.7703 0.5641
vn -0.0725 -0.9965 -0.0417
vn -0.7175 -0.6794 0.1538
vn -0.1749 -0.9743 -0.1418
vn -0.4370 -0.8994 -0.0140
vn -0.1749 -0.9429 -0.2833
vn -0.4370 -0.8210 -0.3674
vn -0.7175 -0.5507 -0.4265
vn -0.1810 -0.7656 -0.6173
vn -0.2972 -0.4597 -0.8368
vn -0.0725 -0.9208 -0.3833
vn 0.2972 -0.4597 -0.8368
vn 0.0725 -0.9208 -0.3833
vn 0.1810 -0.7656 -0.6173
vn 0.7175 -0.5507 -0.4265
vn 0.1749 -0.9429 -0.2833
vn 0.4370 -0.8210 -0.3674
vn 0.4370 -0.8994 -0.0140
vn 0.7175 -0.6794 0.1538
vn 0.1749 -0.9743 -0.1418
vn 0.1810 -0.9548 0.2359
vn 0.2972 -0.7703 0.5641
vn 0.0725 -0.9965 -0.0417
vn 0.2418 -0.8831 0.4021
vn 0.5837 -0.8091 0.0683
vn 0.5837 -0.7044 -0.4038
vn 0.2418 -0.6304 -0.7376
vn -0.2418 -0.6304 -0.7377
vn -0.5837 -0.7044 -0.4038
vn -0.5837 -0.8091 0.0683
vn -0.2418 -0.8831 0.4021
vn 0.5022 -0.7744 -0.3848
vn 0.5022 -0.8645 0.0214
vn 0.2080 -0.9281 0.3087
vn -0.2080 -0.9281 0.3087
vn -0.5022 -0.8645 0.0214
vn -0.5022 -0.7744 -0.3848
vn -0.2080 -0.7107 -0.6720
vn 0.2080 -0.7107 -0.6720
vn 0.3827 0.2000 -0.9020
vn 0.9239 0.0828 -0.3736
vn 0.9239 -0.0828 0.3736
vn 0.3827 -0.2000 0.9020
vn -0.3827 -0.2000 0.9020
vn -0.9239 -0.0828 0.3736
vn -0.0000 0.9763 0.2164
vn -0.9239 0.0828 -0.3736
vn -0.3827 0.2000 -0.9020
g Umbrella_Sphere.008_Material.001
usemtl Material.001
s 1
f 29/1/1 16/2/1 1/3/1 26/4/1
f 17/5/2 2/6/2 19/7/2 18/8/2
f 16/2/3 7/9/3 1/3/3
f 19/10/4 2/11/4 4/12/4 20/13/4
f 1/14/5 7/15/5 3/16/5
f 26/17/6 1/14/6 3/16/6 27/18/6
f 3/19/7 7/20/7 5/21/7
f 27/22/8 3/19/8 5/21/8 28/23/8
f 20/24/9 4/25/9 6/26/9 21/27/9
f 28/28/10 5/29/10 8/30/10 30/31/10
f 21/32/11 6/33/11 9/34/11 22/35/11
f 5/29/12 7/36/12 8/30/12
f 22/37/13 9/38/13 11/39/13 23/40/13
f 8/41/14 7/42/14 10/43/14
f 30/44/15 8/41/15 10/43/15 33/45/15
f 23/46/16 11/47/16 13/48/16 24/49/16
f 10/50/17 7/51/17 12/52/17
f 33/53/18 10/50/18 12/52/18 31/54/18
f 31/55/19 12/56/19 14/57/19 32/58/19
f 13/59/20 15/60/20 25/61/20 24/62/20
f 12/56/21 7/63/21 14/57/21
f 32/64/22 14/65/22 16/66/22 29/67/22
f 25/68/23 15/69/23 17/70/23 18/71/23
f 14/65/24 7/72/24 16/66/24
f 15/69/25 32/64/25 29/67/25 17/70/25
f 13/59/26 31/55/26 32/58/26 15/60/26
f 11/47/27 33/53/27 31/54/27 13/48/27
f 9/38/28 30/44/28 33/45/28 11/39/28
f 6/33/29 28/28/29 30/31/29 9/34/29
f 4/25/30 27/22/30 28/23/30 6/26/30
f 2/11/31 26/17/31 27/18/31 4/12/31
f 17/5/32 29/1/32 26/4/32 2/6/32
f 62/73/33 59/74/33 34/75/33 49/76/33
f 50/77/34 51/78/34 52/79/34 35/80/34
f 49/76/35 34/75/35 40/81/35
f 52/79/36 53/82/36 37/83/36 35/84/36
f 34/85/37 36/86/37 40/87/37
f 59/88/38 60/89/38 36/86/38 34/85/38
f 36/90/39 38/91/39 40/92/39
f 60/93/40 61/94/40 38/91/40 36/90/40
f 53/82/41 54/95/41 39/96/41 37/97/41
f 61/98/42 63/99/42 41/100/42 38/101/42
f 54/95/43 55/102/43 42/103/43 39/104/43
f 38/101/44 41/100/44 40/105/44
f 55/102/45 56/106/45 44/107/45 42/108/45
f 41/109/46 43/110/46 40/111/46
f 63/112/47 66/113/47 43/110/47 41/109/47
f 56/106/48 57/114/48 46/115/48 44/116/48
f 43/117/49 45/118/49 40/119/49
f 66/120/50 64/121/50 45/118/50 43/117/50
f 64/122/51 65/123/51 47/124/51 45/125/51
f 46/126/52 57/114/52 58/127/52 48/128/52
f 45/125/53 47/124/53 40/129/53
f 65/130/54 62/131/54 49/132/54 47/133/54
f 58/127/55 51/78/55 50/134/55 48/135/55
f 47/133/56 49/132/56 40/136/56
f 48/135/57 50/134/57 62/131/57 65/130/57
f 46/126/58 48/128/58 65/123/58 64/122/58
f 44/116/59 46/115/59 64/121/59 66/120/59
f 42/108/60 44/107/60 66/113/60 63/112/60
f 39/104/61 42/103/61 63/99/61 61/98/61
f 37/97/62 39/96/62 61/94/62 60/93/62
f 35/84/63 37/83/63 60/89/63 59/88/63
f 50/77/64 35/80/64 59/74/64 62/73/64
f 19/137/65 20/138/65 53/82/65 52/79/65
f 20/138/66 21/139/66 54/95/66 53/82/66
f 21/139/67 22/140/67 55/102/67 54/95/67
f 22/140/68 23/141/68 56/106/68 55/102/68
f 23/141/69 24/142/69 57/114/69 56/106/69
f 24/142/70 25/143/70 58/127/70 57/114/70
f 25/143/71 18/144/71 51/78/71 58/127/71
f 18/144/72 19/137/72 52/79/72 51/78/72
f 67/145/73 68/146/73 70/147/73 69/148/73
f 69/148/74 70/147/74 72/149/74 71/150/74
f 71/150/75 72/149/75 74/151/75 73/152/75
f 73/152/76 74/151/76 76/153/76 75/154/76
f 75/154/77 76/153/77 78/155/77 77/156/77
f 77/156/78 78/155/78 80/157/78 79/158/78
f 70/159/79 68/160/79 82/161/79 80/162/79 78/163/79 76/164/79 74/165/79 72/166/79
f 79/158/80 80/157/80 82/167/80 81/168/80
f 81/168/81 82/167/81 68/169/81 67/170/81
